<mxfile host="app.diagrams.net" modified="2024-03-29T17:57:12.262Z" agent="Mozilla/5.0 (Windows NT 10.0; Win64; x64) AppleWebKit/537.36 (KHTML, like Gecko) Chrome/123.0.0.0 Safari/537.36" etag="z6hz9f7rja6n4oksBzNM" version="24.2.1" type="github">
  <diagram name="Page-1" id="tn3OO6Q_hTxbhWY94wWQ">
    <mxGraphModel dx="2800" dy="1643" grid="1" gridSize="10" guides="1" tooltips="1" connect="1" arrows="1" fold="1" page="1" pageScale="1" pageWidth="850" pageHeight="1100" math="0" shadow="0">
      <root>
        <mxCell id="0" />
        <mxCell id="1" parent="0" />
        <mxCell id="8oYRrfSQbkXT5_Vhazys-37" value="" style="sketch=0;pointerEvents=1;shadow=0;dashed=0;html=1;strokeColor=none;labelPosition=center;verticalLabelPosition=bottom;verticalAlign=top;align=center;fillColor=#515151;shape=mxgraph.mscae.system_center.admin_console" parent="1" vertex="1">
          <mxGeometry x="-1420" y="194" width="50" height="36" as="geometry" />
        </mxCell>
        <mxCell id="cTJ_kjLz4T1xrLPyeFBe-41" value="" style="whiteSpace=wrap;html=1;" vertex="1" parent="1">
          <mxGeometry x="-580" y="-52" width="120" height="60" as="geometry" />
        </mxCell>
        <mxCell id="8oYRrfSQbkXT5_Vhazys-39" style="edgeStyle=orthogonalEdgeStyle;rounded=0;orthogonalLoop=1;jettySize=auto;html=1;" parent="1" source="8oYRrfSQbkXT5_Vhazys-37" target="8oYRrfSQbkXT5_Vhazys-40" edge="1">
          <mxGeometry relative="1" as="geometry">
            <mxPoint x="-670" y="218" as="targetPoint" />
          </mxGeometry>
        </mxCell>
        <mxCell id="8oYRrfSQbkXT5_Vhazys-38" value="Operation Admin" style="text;html=1;align=center;verticalAlign=middle;resizable=0;points=[];autosize=1;strokeColor=none;fillColor=none;" parent="1" vertex="1">
          <mxGeometry x="-1220" y="230" width="110" height="30" as="geometry" />
        </mxCell>
        <mxCell id="8oYRrfSQbkXT5_Vhazys-48" value="" style="edgeStyle=orthogonalEdgeStyle;rounded=0;orthogonalLoop=1;jettySize=auto;html=1;" parent="1" source="8oYRrfSQbkXT5_Vhazys-40" target="8oYRrfSQbkXT5_Vhazys-42" edge="1">
          <mxGeometry relative="1" as="geometry" />
        </mxCell>
        <mxCell id="cTJ_kjLz4T1xrLPyeFBe-32" style="edgeStyle=orthogonalEdgeStyle;rounded=0;orthogonalLoop=1;jettySize=auto;html=1;" edge="1" parent="1" source="8oYRrfSQbkXT5_Vhazys-40" target="cTJ_kjLz4T1xrLPyeFBe-14">
          <mxGeometry relative="1" as="geometry" />
        </mxCell>
        <mxCell id="cTJ_kjLz4T1xrLPyeFBe-76" value="" style="edgeStyle=orthogonalEdgeStyle;rounded=0;orthogonalLoop=1;jettySize=auto;html=1;" edge="1" parent="1" source="8oYRrfSQbkXT5_Vhazys-40" target="cTJ_kjLz4T1xrLPyeFBe-72">
          <mxGeometry relative="1" as="geometry" />
        </mxCell>
        <mxCell id="8oYRrfSQbkXT5_Vhazys-40" value="" style="aspect=fixed;sketch=0;html=1;dashed=0;whitespace=wrap;fillColor=#2875E2;strokeColor=#ffffff;points=[[0.005,0.63,0],[0.1,0.2,0],[0.9,0.2,0],[0.5,0,0],[0.995,0.63,0],[0.72,0.99,0],[0.5,1,0],[0.28,0.99,0]];shape=mxgraph.kubernetes.icon2;prIcon=ing" parent="1" vertex="1">
          <mxGeometry x="-1165" y="188" width="50" height="48" as="geometry" />
        </mxCell>
        <mxCell id="8oYRrfSQbkXT5_Vhazys-41" value="Ingress controller" style="text;html=1;align=center;verticalAlign=middle;resizable=0;points=[];autosize=1;strokeColor=none;fillColor=none;" parent="1" vertex="1">
          <mxGeometry x="-1105" y="236" width="120" height="30" as="geometry" />
        </mxCell>
        <mxCell id="8oYRrfSQbkXT5_Vhazys-42" value="" style="image;sketch=0;aspect=fixed;html=1;points=[];align=center;fontSize=12;image=img/lib/mscae/Kubernetes.svg;" parent="1" vertex="1">
          <mxGeometry x="-700" y="188" width="50" height="48" as="geometry" />
        </mxCell>
        <mxCell id="8oYRrfSQbkXT5_Vhazys-43" value="UAP UI" style="text;html=1;align=center;verticalAlign=middle;resizable=0;points=[];autosize=1;strokeColor=none;fillColor=none;" parent="1" vertex="1">
          <mxGeometry x="-705" y="236" width="60" height="30" as="geometry" />
        </mxCell>
        <mxCell id="8oYRrfSQbkXT5_Vhazys-62" style="edgeStyle=orthogonalEdgeStyle;rounded=0;orthogonalLoop=1;jettySize=auto;html=1;" parent="1" source="8oYRrfSQbkXT5_Vhazys-46" target="8oYRrfSQbkXT5_Vhazys-52" edge="1">
          <mxGeometry relative="1" as="geometry" />
        </mxCell>
        <mxCell id="8oYRrfSQbkXT5_Vhazys-123" style="edgeStyle=orthogonalEdgeStyle;rounded=0;orthogonalLoop=1;jettySize=auto;html=1;" parent="1" source="8oYRrfSQbkXT5_Vhazys-46" target="8oYRrfSQbkXT5_Vhazys-120" edge="1">
          <mxGeometry relative="1" as="geometry">
            <Array as="points">
              <mxPoint x="-265" y="140" />
            </Array>
          </mxGeometry>
        </mxCell>
        <mxCell id="8oYRrfSQbkXT5_Vhazys-46" value="Schedule Service" style="image;sketch=0;aspect=fixed;html=1;points=[];align=center;fontSize=12;image=img/lib/mscae/Kubernetes.svg;" parent="1" vertex="1">
          <mxGeometry x="-370" y="130" width="50" height="48" as="geometry" />
        </mxCell>
        <mxCell id="8oYRrfSQbkXT5_Vhazys-119" style="edgeStyle=orthogonalEdgeStyle;rounded=0;orthogonalLoop=1;jettySize=auto;html=1;" parent="1" source="8oYRrfSQbkXT5_Vhazys-47" target="8oYRrfSQbkXT5_Vhazys-105" edge="1">
          <mxGeometry relative="1" as="geometry" />
        </mxCell>
        <mxCell id="8oYRrfSQbkXT5_Vhazys-47" value="Edge service" style="image;sketch=0;aspect=fixed;html=1;points=[];align=center;fontSize=12;image=img/lib/mscae/Kubernetes.svg;" parent="1" vertex="1">
          <mxGeometry x="-510" y="188" width="50" height="48" as="geometry" />
        </mxCell>
        <mxCell id="8oYRrfSQbkXT5_Vhazys-52" value="Data Service" style="image;sketch=0;aspect=fixed;html=1;points=[];align=center;fontSize=12;image=img/lib/mscae/Kubernetes.svg;" parent="1" vertex="1">
          <mxGeometry x="-290" y="188" width="50" height="48" as="geometry" />
        </mxCell>
        <mxCell id="8oYRrfSQbkXT5_Vhazys-53" style="edgeStyle=orthogonalEdgeStyle;rounded=0;orthogonalLoop=1;jettySize=auto;html=1;entryX=0.04;entryY=0.5;entryDx=0;entryDy=0;entryPerimeter=0;" parent="1" source="8oYRrfSQbkXT5_Vhazys-42" target="8oYRrfSQbkXT5_Vhazys-47" edge="1">
          <mxGeometry relative="1" as="geometry" />
        </mxCell>
        <mxCell id="8oYRrfSQbkXT5_Vhazys-61" style="edgeStyle=orthogonalEdgeStyle;rounded=0;orthogonalLoop=1;jettySize=auto;html=1;entryX=0;entryY=0.667;entryDx=0;entryDy=0;entryPerimeter=0;" parent="1" source="8oYRrfSQbkXT5_Vhazys-47" target="8oYRrfSQbkXT5_Vhazys-46" edge="1">
          <mxGeometry relative="1" as="geometry">
            <Array as="points">
              <mxPoint x="-415" y="200" />
              <mxPoint x="-415" y="162" />
            </Array>
          </mxGeometry>
        </mxCell>
        <mxCell id="8oYRrfSQbkXT5_Vhazys-63" value="UAP Mysql" style="image;sketch=0;aspect=fixed;html=1;points=[];align=center;fontSize=12;image=img/lib/mscae/Azure_Database_for_MySQL_servers.svg;" parent="1" vertex="1">
          <mxGeometry x="-158" y="226" width="38" height="50" as="geometry" />
        </mxCell>
        <mxCell id="8oYRrfSQbkXT5_Vhazys-64" style="edgeStyle=orthogonalEdgeStyle;rounded=0;orthogonalLoop=1;jettySize=auto;html=1;entryX=-0.132;entryY=0.48;entryDx=0;entryDy=0;entryPerimeter=0;" parent="1" source="8oYRrfSQbkXT5_Vhazys-52" target="8oYRrfSQbkXT5_Vhazys-63" edge="1">
          <mxGeometry relative="1" as="geometry" />
        </mxCell>
        <mxCell id="8oYRrfSQbkXT5_Vhazys-67" style="edgeStyle=orthogonalEdgeStyle;rounded=0;orthogonalLoop=1;jettySize=auto;html=1;entryX=0.2;entryY=0.625;entryDx=0;entryDy=0;entryPerimeter=0;" parent="1" edge="1">
          <mxGeometry relative="1" as="geometry">
            <mxPoint x="-460" y="220" as="sourcePoint" />
            <mxPoint x="-290" y="217.5" as="targetPoint" />
            <Array as="points">
              <mxPoint x="-410" y="217.5" />
              <mxPoint x="-410" y="217.5" />
            </Array>
          </mxGeometry>
        </mxCell>
        <mxCell id="8oYRrfSQbkXT5_Vhazys-131" style="edgeStyle=orthogonalEdgeStyle;rounded=0;orthogonalLoop=1;jettySize=auto;html=1;" parent="1" source="8oYRrfSQbkXT5_Vhazys-78" target="8oYRrfSQbkXT5_Vhazys-47" edge="1">
          <mxGeometry relative="1" as="geometry" />
        </mxCell>
        <mxCell id="8oYRrfSQbkXT5_Vhazys-136" style="edgeStyle=orthogonalEdgeStyle;rounded=0;orthogonalLoop=1;jettySize=auto;html=1;" parent="1" source="8oYRrfSQbkXT5_Vhazys-78" target="8oYRrfSQbkXT5_Vhazys-94" edge="1">
          <mxGeometry relative="1" as="geometry" />
        </mxCell>
        <mxCell id="8oYRrfSQbkXT5_Vhazys-78" value="" style="image;sketch=0;aspect=fixed;html=1;points=[];align=center;fontSize=12;image=img/lib/mscae/Docker.svg;" parent="1" vertex="1">
          <mxGeometry x="-591.65" y="491" width="43.29" height="35.5" as="geometry" />
        </mxCell>
        <mxCell id="8oYRrfSQbkXT5_Vhazys-82" value="" style="image;sketch=0;aspect=fixed;html=1;points=[];align=center;fontSize=12;image=img/lib/mscae/Docker.svg;" parent="1" vertex="1">
          <mxGeometry x="-620" y="580" width="50" height="41" as="geometry" />
        </mxCell>
        <mxCell id="8oYRrfSQbkXT5_Vhazys-89" value="TC Admin UI" style="text;html=1;align=center;verticalAlign=middle;resizable=0;points=[];autosize=1;strokeColor=none;fillColor=none;" parent="1" vertex="1">
          <mxGeometry x="-620" y="450" width="90" height="30" as="geometry" />
        </mxCell>
        <mxCell id="8oYRrfSQbkXT5_Vhazys-93" value="TAO admin &amp;amp; candidate" style="text;html=1;align=center;verticalAlign=middle;resizable=0;points=[];autosize=1;strokeColor=none;fillColor=none;" parent="1" vertex="1">
          <mxGeometry x="-660" y="610" width="150" height="30" as="geometry" />
        </mxCell>
        <mxCell id="8oYRrfSQbkXT5_Vhazys-94" value="" style="image;sketch=0;aspect=fixed;html=1;points=[];align=center;fontSize=12;image=img/lib/mscae/Docker.svg;" parent="1" vertex="1">
          <mxGeometry x="-370" y="485.5" width="50" height="41" as="geometry" />
        </mxCell>
        <mxCell id="8oYRrfSQbkXT5_Vhazys-95" value="Mysql" style="text;html=1;align=center;verticalAlign=middle;resizable=0;points=[];autosize=1;strokeColor=none;fillColor=none;" parent="1" vertex="1">
          <mxGeometry x="-370" y="480" width="50" height="30" as="geometry" />
        </mxCell>
        <mxCell id="8oYRrfSQbkXT5_Vhazys-118" style="edgeStyle=orthogonalEdgeStyle;rounded=0;orthogonalLoop=1;jettySize=auto;html=1;" parent="1" source="8oYRrfSQbkXT5_Vhazys-96" target="8oYRrfSQbkXT5_Vhazys-78" edge="1">
          <mxGeometry relative="1" as="geometry" />
        </mxCell>
        <mxCell id="8oYRrfSQbkXT5_Vhazys-96" value="TC Admin&amp;nbsp;" style="sketch=0;pointerEvents=1;shadow=0;dashed=0;html=1;strokeColor=none;labelPosition=center;verticalLabelPosition=bottom;verticalAlign=top;align=center;fillColor=#515151;shape=mxgraph.mscae.system_center.admin_console" parent="1" vertex="1">
          <mxGeometry x="-874.16" y="490.5" width="50" height="36" as="geometry" />
        </mxCell>
        <mxCell id="8oYRrfSQbkXT5_Vhazys-97" value="Candidates" style="html=1;verticalLabelPosition=bottom;align=center;labelBackgroundColor=#ffffff;verticalAlign=top;strokeWidth=2;strokeColor=#0080F0;shadow=0;dashed=0;shape=mxgraph.ios7.icons.user;" parent="1" vertex="1">
          <mxGeometry x="-854.16" y="580" width="30" height="30" as="geometry" />
        </mxCell>
        <mxCell id="cTJ_kjLz4T1xrLPyeFBe-48" value="" style="edgeStyle=orthogonalEdgeStyle;rounded=0;orthogonalLoop=1;jettySize=auto;html=1;" edge="1" parent="1" source="8oYRrfSQbkXT5_Vhazys-105" target="cTJ_kjLz4T1xrLPyeFBe-47">
          <mxGeometry relative="1" as="geometry" />
        </mxCell>
        <mxCell id="8oYRrfSQbkXT5_Vhazys-105" value="Tao Authoring service" style="image;sketch=0;aspect=fixed;html=1;points=[];align=center;fontSize=12;image=img/lib/mscae/Kubernetes.svg;" parent="1" vertex="1">
          <mxGeometry x="-540" y="30.5" width="48.96" height="47" as="geometry" />
        </mxCell>
        <mxCell id="8oYRrfSQbkXT5_Vhazys-109" value="TAO Mysql" style="image;sketch=0;aspect=fixed;html=1;points=[];align=center;fontSize=12;image=img/lib/mscae/Azure_Database_for_MySQL_servers.svg;" parent="1" vertex="1">
          <mxGeometry x="-400" y="16.37" width="40" height="52.63" as="geometry" />
        </mxCell>
        <mxCell id="8oYRrfSQbkXT5_Vhazys-111" value="Items" style="image;aspect=fixed;html=1;points=[];align=center;fontSize=12;image=img/lib/azure2/storage/Azure_Fileshare.svg;" parent="1" vertex="1">
          <mxGeometry x="-560" y="-42" width="20" height="20" as="geometry" />
        </mxCell>
        <mxCell id="8oYRrfSQbkXT5_Vhazys-112" value="Test" style="image;aspect=fixed;html=1;points=[];align=center;fontSize=12;image=img/lib/azure2/storage/Azure_Fileshare.svg;" parent="1" vertex="1">
          <mxGeometry x="-490" y="-42" width="20" height="20" as="geometry" />
        </mxCell>
        <mxCell id="8oYRrfSQbkXT5_Vhazys-117" style="edgeStyle=orthogonalEdgeStyle;rounded=0;orthogonalLoop=1;jettySize=auto;html=1;entryX=-0.05;entryY=0.646;entryDx=0;entryDy=0;entryPerimeter=0;" parent="1" source="8oYRrfSQbkXT5_Vhazys-105" target="8oYRrfSQbkXT5_Vhazys-109" edge="1">
          <mxGeometry relative="1" as="geometry">
            <Array as="points">
              <mxPoint x="-440" y="63" />
              <mxPoint x="-440" y="54" />
            </Array>
          </mxGeometry>
        </mxCell>
        <mxCell id="8oYRrfSQbkXT5_Vhazys-120" value="" style="image;sketch=0;aspect=fixed;html=1;points=[];align=center;fontSize=12;image=img/lib/mscae/BlobBlock.svg;" parent="1" vertex="1">
          <mxGeometry x="-290" y="72.63" width="50" height="42" as="geometry" />
        </mxCell>
        <mxCell id="8oYRrfSQbkXT5_Vhazys-124" value="Blob Storage" style="text;html=1;align=center;verticalAlign=middle;resizable=0;points=[];autosize=1;strokeColor=none;fillColor=none;" parent="1" vertex="1">
          <mxGeometry x="-310" y="39" width="90" height="30" as="geometry" />
        </mxCell>
        <mxCell id="8oYRrfSQbkXT5_Vhazys-126" value="candidate schedule details" style="text;html=1;align=center;verticalAlign=middle;resizable=0;points=[];autosize=1;strokeColor=none;fillColor=none;" parent="1" vertex="1">
          <mxGeometry x="-210" y="290" width="160" height="30" as="geometry" />
        </mxCell>
        <mxCell id="8oYRrfSQbkXT5_Vhazys-127" value="Mongo DB" style="strokeWidth=2;html=1;shape=mxgraph.flowchart.database;whiteSpace=wrap;" parent="1" vertex="1">
          <mxGeometry x="-120" y="54.629999999999995" width="60" height="60" as="geometry" />
        </mxCell>
        <mxCell id="8oYRrfSQbkXT5_Vhazys-128" value="Instruction image blob reference" style="text;html=1;align=center;verticalAlign=middle;resizable=0;points=[];autosize=1;strokeColor=none;fillColor=none;" parent="1" vertex="1">
          <mxGeometry x="-165" y="108" width="190" height="30" as="geometry" />
        </mxCell>
        <mxCell id="8oYRrfSQbkXT5_Vhazys-129" style="edgeStyle=orthogonalEdgeStyle;rounded=0;orthogonalLoop=1;jettySize=auto;html=1;entryX=-0.017;entryY=0.739;entryDx=0;entryDy=0;entryPerimeter=0;" parent="1" source="8oYRrfSQbkXT5_Vhazys-52" target="8oYRrfSQbkXT5_Vhazys-127" edge="1">
          <mxGeometry relative="1" as="geometry" />
        </mxCell>
        <mxCell id="8oYRrfSQbkXT5_Vhazys-140" value="" style="rounded=0;whiteSpace=wrap;html=1;" parent="1" vertex="1">
          <mxGeometry x="-630" y="670" width="120" height="60" as="geometry" />
        </mxCell>
        <mxCell id="8oYRrfSQbkXT5_Vhazys-134" value="test" style="image;aspect=fixed;html=1;points=[];align=center;fontSize=12;image=img/lib/azure2/storage/Azure_Fileshare.svg;" parent="1" vertex="1">
          <mxGeometry x="-560" y="670" width="40" height="40" as="geometry" />
        </mxCell>
        <mxCell id="8oYRrfSQbkXT5_Vhazys-135" style="edgeStyle=orthogonalEdgeStyle;rounded=0;orthogonalLoop=1;jettySize=auto;html=1;entryX=-0.06;entryY=0.366;entryDx=0;entryDy=0;entryPerimeter=0;" parent="1" source="8oYRrfSQbkXT5_Vhazys-97" target="8oYRrfSQbkXT5_Vhazys-82" edge="1">
          <mxGeometry relative="1" as="geometry" />
        </mxCell>
        <mxCell id="8oYRrfSQbkXT5_Vhazys-137" style="edgeStyle=orthogonalEdgeStyle;rounded=0;orthogonalLoop=1;jettySize=auto;html=1;entryX=-0.02;entryY=0.756;entryDx=0;entryDy=0;entryPerimeter=0;" parent="1" source="8oYRrfSQbkXT5_Vhazys-82" target="8oYRrfSQbkXT5_Vhazys-94" edge="1">
          <mxGeometry relative="1" as="geometry" />
        </mxCell>
        <mxCell id="8oYRrfSQbkXT5_Vhazys-139" value="Items" style="image;aspect=fixed;html=1;points=[];align=center;fontSize=12;image=img/lib/azure2/storage/Azure_Fileshare.svg;" parent="1" vertex="1">
          <mxGeometry x="-620" y="670" width="40" height="40" as="geometry" />
        </mxCell>
        <mxCell id="8oYRrfSQbkXT5_Vhazys-141" style="edgeStyle=orthogonalEdgeStyle;rounded=0;orthogonalLoop=1;jettySize=auto;html=1;entryX=0.85;entryY=0;entryDx=0;entryDy=0;entryPerimeter=0;" parent="1" source="8oYRrfSQbkXT5_Vhazys-78" target="8oYRrfSQbkXT5_Vhazys-134" edge="1">
          <mxGeometry relative="1" as="geometry" />
        </mxCell>
        <mxCell id="8oYRrfSQbkXT5_Vhazys-142" style="edgeStyle=orthogonalEdgeStyle;rounded=0;orthogonalLoop=1;jettySize=auto;html=1;entryX=0.5;entryY=-0.05;entryDx=0;entryDy=0;entryPerimeter=0;" parent="1" source="8oYRrfSQbkXT5_Vhazys-82" target="8oYRrfSQbkXT5_Vhazys-139" edge="1">
          <mxGeometry relative="1" as="geometry" />
        </mxCell>
        <mxCell id="8oYRrfSQbkXT5_Vhazys-145" value="Test Center" style="text;html=1;align=center;verticalAlign=middle;resizable=0;points=[];autosize=1;strokeColor=none;fillColor=none;" parent="1" vertex="1">
          <mxGeometry x="-814.16" y="450" width="80" height="30" as="geometry" />
        </mxCell>
        <mxCell id="cTJ_kjLz4T1xrLPyeFBe-30" style="edgeStyle=orthogonalEdgeStyle;rounded=0;orthogonalLoop=1;jettySize=auto;html=1;" edge="1" parent="1" source="cTJ_kjLz4T1xrLPyeFBe-11" target="cTJ_kjLz4T1xrLPyeFBe-18">
          <mxGeometry relative="1" as="geometry" />
        </mxCell>
        <mxCell id="cTJ_kjLz4T1xrLPyeFBe-11" value="Item Edge service" style="image;sketch=0;aspect=fixed;html=1;points=[];align=center;fontSize=12;image=img/lib/mscae/Kubernetes.svg;" vertex="1" parent="1">
          <mxGeometry x="-824.1600000000002" y="57.99999999999999" width="52.08" height="50" as="geometry" />
        </mxCell>
        <mxCell id="cTJ_kjLz4T1xrLPyeFBe-14" value="Item UI Service" style="image;sketch=0;aspect=fixed;html=1;points=[];align=center;fontSize=12;image=img/lib/mscae/Kubernetes.svg;" vertex="1" parent="1">
          <mxGeometry x="-970" y="58" width="54.17" height="52" as="geometry" />
        </mxCell>
        <mxCell id="cTJ_kjLz4T1xrLPyeFBe-35" style="edgeStyle=orthogonalEdgeStyle;rounded=0;orthogonalLoop=1;jettySize=auto;html=1;" edge="1" parent="1" source="cTJ_kjLz4T1xrLPyeFBe-18">
          <mxGeometry relative="1" as="geometry">
            <mxPoint x="-560" y="-17" as="targetPoint" />
          </mxGeometry>
        </mxCell>
        <mxCell id="cTJ_kjLz4T1xrLPyeFBe-18" value="Question service" style="image;sketch=0;aspect=fixed;html=1;points=[];align=center;fontSize=12;image=img/lib/mscae/Kubernetes.svg;" vertex="1" parent="1">
          <mxGeometry x="-772.0800000000002" y="-42" width="52.08" height="50" as="geometry" />
        </mxCell>
        <mxCell id="cTJ_kjLz4T1xrLPyeFBe-22" style="edgeStyle=orthogonalEdgeStyle;rounded=0;orthogonalLoop=1;jettySize=auto;html=1;entryX=-0.017;entryY=0.64;entryDx=0;entryDy=0;entryPerimeter=0;" edge="1" parent="1" source="cTJ_kjLz4T1xrLPyeFBe-18">
          <mxGeometry relative="1" as="geometry">
            <mxPoint x="-562.04" y="-18" as="targetPoint" />
          </mxGeometry>
        </mxCell>
        <mxCell id="cTJ_kjLz4T1xrLPyeFBe-23" value="Data service" style="image;sketch=0;aspect=fixed;html=1;points=[];align=center;fontSize=12;image=img/lib/mscae/Kubernetes.svg;" vertex="1" parent="1">
          <mxGeometry x="-772.08" y="-165" width="52.08" height="50" as="geometry" />
        </mxCell>
        <mxCell id="cTJ_kjLz4T1xrLPyeFBe-24" style="edgeStyle=orthogonalEdgeStyle;rounded=0;orthogonalLoop=1;jettySize=auto;html=1;entryX=0.5;entryY=1;entryDx=0;entryDy=0;entryPerimeter=0;" edge="1" parent="1" source="cTJ_kjLz4T1xrLPyeFBe-18" target="cTJ_kjLz4T1xrLPyeFBe-23">
          <mxGeometry relative="1" as="geometry" />
        </mxCell>
        <mxCell id="cTJ_kjLz4T1xrLPyeFBe-26" value="Mongo DB" style="strokeWidth=2;html=1;shape=mxgraph.flowchart.database;whiteSpace=wrap;" vertex="1" parent="1">
          <mxGeometry x="-670" y="-165" width="60" height="60" as="geometry" />
        </mxCell>
        <mxCell id="cTJ_kjLz4T1xrLPyeFBe-28" style="edgeStyle=orthogonalEdgeStyle;rounded=0;orthogonalLoop=1;jettySize=auto;html=1;entryX=0.167;entryY=0.417;entryDx=0;entryDy=0;entryPerimeter=0;" edge="1" parent="1" source="cTJ_kjLz4T1xrLPyeFBe-23" target="cTJ_kjLz4T1xrLPyeFBe-26">
          <mxGeometry relative="1" as="geometry" />
        </mxCell>
        <mxCell id="cTJ_kjLz4T1xrLPyeFBe-29" style="edgeStyle=orthogonalEdgeStyle;rounded=0;orthogonalLoop=1;jettySize=auto;html=1;entryX=0.022;entryY=0.52;entryDx=0;entryDy=0;entryPerimeter=0;" edge="1" parent="1" source="cTJ_kjLz4T1xrLPyeFBe-14" target="cTJ_kjLz4T1xrLPyeFBe-11">
          <mxGeometry relative="1" as="geometry" />
        </mxCell>
        <mxCell id="cTJ_kjLz4T1xrLPyeFBe-33" style="edgeStyle=orthogonalEdgeStyle;rounded=0;orthogonalLoop=1;jettySize=auto;html=1;entryX=0;entryY=0.625;entryDx=0;entryDy=0;entryPerimeter=0;exitX=0.7;exitY=0.021;exitDx=0;exitDy=0;exitPerimeter=0;" edge="1" parent="1" source="8oYRrfSQbkXT5_Vhazys-40">
          <mxGeometry relative="1" as="geometry">
            <mxPoint x="-880" y="187.63" as="sourcePoint" />
            <mxPoint x="-540" y="39.005" as="targetPoint" />
            <Array as="points">
              <mxPoint x="-1130" y="200" />
              <mxPoint x="-900" y="200" />
              <mxPoint x="-900" y="180" />
              <mxPoint x="-650" y="180" />
              <mxPoint x="-650" y="39" />
            </Array>
          </mxGeometry>
        </mxCell>
        <mxCell id="cTJ_kjLz4T1xrLPyeFBe-47" value="Storage" style="text;html=1;align=center;verticalAlign=middle;resizable=0;points=[];autosize=1;strokeColor=none;fillColor=none;" vertex="1" parent="1">
          <mxGeometry x="-550.52" y="-22" width="70" height="30" as="geometry" />
        </mxCell>
        <mxCell id="cTJ_kjLz4T1xrLPyeFBe-49" value="CBT Report UI" style="image;sketch=0;aspect=fixed;html=1;points=[];align=center;fontSize=12;image=img/lib/mscae/Kubernetes.svg;" vertex="1" parent="1">
          <mxGeometry x="-700" y="296" width="50" height="48" as="geometry" />
        </mxCell>
        <mxCell id="cTJ_kjLz4T1xrLPyeFBe-51" style="edgeStyle=orthogonalEdgeStyle;rounded=0;orthogonalLoop=1;jettySize=auto;html=1;entryX=0.02;entryY=0.813;entryDx=0;entryDy=0;entryPerimeter=0;" edge="1" parent="1" source="8oYRrfSQbkXT5_Vhazys-40" target="cTJ_kjLz4T1xrLPyeFBe-49">
          <mxGeometry relative="1" as="geometry" />
        </mxCell>
        <mxCell id="cTJ_kjLz4T1xrLPyeFBe-52" value="Edge service" style="image;sketch=0;aspect=fixed;html=1;points=[];align=center;fontSize=12;image=img/lib/mscae/Kubernetes.svg;" vertex="1" parent="1">
          <mxGeometry x="-575" y="296" width="50" height="48" as="geometry" />
        </mxCell>
        <mxCell id="cTJ_kjLz4T1xrLPyeFBe-53" value="" style="image;sketch=0;aspect=fixed;html=1;points=[];align=center;fontSize=12;image=img/lib/mscae/Kubernetes.svg;" vertex="1" parent="1">
          <mxGeometry x="-450" y="296" width="50" height="48" as="geometry" />
        </mxCell>
        <mxCell id="cTJ_kjLz4T1xrLPyeFBe-55" value="Mongo DB" style="strokeWidth=2;html=1;shape=mxgraph.flowchart.database;whiteSpace=wrap;" vertex="1" parent="1">
          <mxGeometry x="-330" y="296" width="60" height="60" as="geometry" />
        </mxCell>
        <mxCell id="cTJ_kjLz4T1xrLPyeFBe-56" style="edgeStyle=orthogonalEdgeStyle;rounded=0;orthogonalLoop=1;jettySize=auto;html=1;entryX=-0.1;entryY=0.521;entryDx=0;entryDy=0;entryPerimeter=0;" edge="1" parent="1" source="cTJ_kjLz4T1xrLPyeFBe-49" target="cTJ_kjLz4T1xrLPyeFBe-52">
          <mxGeometry relative="1" as="geometry" />
        </mxCell>
        <mxCell id="cTJ_kjLz4T1xrLPyeFBe-60" style="edgeStyle=orthogonalEdgeStyle;rounded=0;orthogonalLoop=1;jettySize=auto;html=1;exitX=0.923;exitY=0.462;exitDx=0;exitDy=0;exitPerimeter=0;" edge="1" parent="1" source="cTJ_kjLz4T1xrLPyeFBe-59" target="8oYRrfSQbkXT5_Vhazys-124">
          <mxGeometry relative="1" as="geometry">
            <mxPoint x="-920.8299999999999" y="-70.5" as="sourcePoint" />
            <mxPoint x="-270" y="2.5" as="targetPoint" />
          </mxGeometry>
        </mxCell>
        <mxCell id="cTJ_kjLz4T1xrLPyeFBe-71" value="" style="edgeStyle=orthogonalEdgeStyle;rounded=0;orthogonalLoop=1;jettySize=auto;html=1;" edge="1" parent="1" target="cTJ_kjLz4T1xrLPyeFBe-61">
          <mxGeometry relative="1" as="geometry">
            <mxPoint x="-1013" y="-94" as="sourcePoint" />
            <Array as="points">
              <mxPoint x="-1012" y="-94" />
            </Array>
          </mxGeometry>
        </mxCell>
        <mxCell id="cTJ_kjLz4T1xrLPyeFBe-59" value="Admid Card" style="image;sketch=0;aspect=fixed;html=1;points=[];align=center;fontSize=12;image=img/lib/mscae/Kubernetes.svg;" vertex="1" parent="1">
          <mxGeometry x="-1040" y="-94" width="54.17" height="52" as="geometry" />
        </mxCell>
        <mxCell id="cTJ_kjLz4T1xrLPyeFBe-61" value="Mysql" style="image;sketch=0;aspect=fixed;html=1;points=[];align=center;fontSize=12;image=img/lib/mscae/Azure_Database_for_MySQL_servers.svg;" vertex="1" parent="1">
          <mxGeometry x="-1032.91" y="-230" width="40" height="52.63" as="geometry" />
        </mxCell>
        <mxCell id="cTJ_kjLz4T1xrLPyeFBe-65" style="edgeStyle=orthogonalEdgeStyle;rounded=0;orthogonalLoop=1;jettySize=auto;html=1;" edge="1" parent="1" source="cTJ_kjLz4T1xrLPyeFBe-62" target="cTJ_kjLz4T1xrLPyeFBe-59">
          <mxGeometry relative="1" as="geometry">
            <Array as="points">
              <mxPoint x="-1000" y="-56" />
              <mxPoint x="-1000" y="-56" />
            </Array>
          </mxGeometry>
        </mxCell>
        <mxCell id="cTJ_kjLz4T1xrLPyeFBe-62" value="" style="aspect=fixed;sketch=0;html=1;dashed=0;whitespace=wrap;fillColor=#2875E2;strokeColor=#ffffff;points=[[0.005,0.63,0],[0.1,0.2,0],[0.9,0.2,0],[0.5,0,0],[0.995,0.63,0],[0.72,0.99,0],[0.5,1,0],[0.28,0.99,0]];shape=mxgraph.kubernetes.icon2;prIcon=ing" vertex="1" parent="1">
          <mxGeometry x="-1172.5" y="-90" width="62.5" height="60" as="geometry" />
        </mxCell>
        <mxCell id="cTJ_kjLz4T1xrLPyeFBe-63" value="Candidate" style="html=1;verticalLabelPosition=bottom;align=center;labelBackgroundColor=#ffffff;verticalAlign=top;strokeWidth=2;strokeColor=#0080F0;shadow=0;dashed=0;shape=mxgraph.ios7.icons.user;" vertex="1" parent="1">
          <mxGeometry x="-1410" y="-70" width="30" height="32" as="geometry" />
        </mxCell>
        <mxCell id="cTJ_kjLz4T1xrLPyeFBe-70" value="Ingress controller" style="text;html=1;align=center;verticalAlign=middle;resizable=0;points=[];autosize=1;strokeColor=none;fillColor=none;" vertex="1" parent="1">
          <mxGeometry x="-1190" y="-30" width="120" height="30" as="geometry" />
        </mxCell>
        <mxCell id="cTJ_kjLz4T1xrLPyeFBe-72" value="QBMS UI" style="image;sketch=0;aspect=fixed;html=1;points=[];align=center;fontSize=12;image=img/lib/mscae/Kubernetes.svg;" vertex="1" parent="1">
          <mxGeometry x="-1172.5000000000002" y="83.13" width="54.17" height="52" as="geometry" />
        </mxCell>
        <mxCell id="cTJ_kjLz4T1xrLPyeFBe-74" style="edgeStyle=orthogonalEdgeStyle;rounded=0;orthogonalLoop=1;jettySize=auto;html=1;entryX=0.005;entryY=0.63;entryDx=0;entryDy=0;entryPerimeter=0;" edge="1" parent="1" source="cTJ_kjLz4T1xrLPyeFBe-63" target="cTJ_kjLz4T1xrLPyeFBe-62">
          <mxGeometry relative="1" as="geometry" />
        </mxCell>
        <mxCell id="cTJ_kjLz4T1xrLPyeFBe-75" value="Mysql" style="image;sketch=0;aspect=fixed;html=1;points=[];align=center;fontSize=12;image=img/lib/mscae/Azure_Database_for_MySQL_servers.svg;" vertex="1" parent="1">
          <mxGeometry x="-1080" y="30.5" width="40" height="52.63" as="geometry" />
        </mxCell>
        <mxCell id="cTJ_kjLz4T1xrLPyeFBe-79" style="edgeStyle=orthogonalEdgeStyle;rounded=0;orthogonalLoop=1;jettySize=auto;html=1;entryX=-0.111;entryY=0.797;entryDx=0;entryDy=0;entryPerimeter=0;" edge="1" parent="1" source="cTJ_kjLz4T1xrLPyeFBe-72" target="cTJ_kjLz4T1xrLPyeFBe-75">
          <mxGeometry relative="1" as="geometry" />
        </mxCell>
        <mxCell id="cTJ_kjLz4T1xrLPyeFBe-80" style="edgeStyle=orthogonalEdgeStyle;rounded=0;orthogonalLoop=1;jettySize=auto;html=1;exitX=0.55;exitY=1;exitDx=0;exitDy=0;exitPerimeter=0;entryX=0.18;entryY=0.92;entryDx=0;entryDy=0;entryPerimeter=0;" edge="1" parent="1" source="8oYRrfSQbkXT5_Vhazys-96" target="8oYRrfSQbkXT5_Vhazys-96">
          <mxGeometry relative="1" as="geometry" />
        </mxCell>
        <mxCell id="cTJ_kjLz4T1xrLPyeFBe-84" value="Central Server" style="text;html=1;align=center;verticalAlign=middle;resizable=0;points=[];autosize=1;strokeColor=none;fillColor=none;" vertex="1" parent="1">
          <mxGeometry x="-1285" y="-207.37" width="100" height="30" as="geometry" />
        </mxCell>
      </root>
    </mxGraphModel>
  </diagram>
</mxfile>
